<?xml version="1.0" encoding="UTF-8" standalone="no"?>
<!DOCTYPE svg PUBLIC "-//W3C//DTD SVG 1.1//EN" "http://www.w3.org/Graphics/SVG/1.1/DTD/svg11.dtd">
<svg width="100%" height="100%" viewBox="0 0 492 556" version="1.1" xmlns="http://www.w3.org/2000/svg" xmlns:xlink="http://www.w3.org/1999/xlink" xml:space="preserve" xmlns:serif="http://www.serif.com/" style="fill-rule:evenodd;clip-rule:evenodd;stroke-linecap:round;stroke-linejoin:round;stroke-miterlimit:1.5;">
    <g transform="matrix(1,0,0,1,-14.8607,-12.5957)">
        <g transform="matrix(1.06815,0,0,1.04501,-3679.08,-989.382)">
            <g transform="matrix(2.80888,0,0,2.87109,-249.242,-4591.01)">
                <g>
                    <g>
                        <path d="M1343.09,1977.67L1326.71,1961.29" style="fill:none;stroke:white;stroke-width:0.42px;"/>
                        <g transform="matrix(0.707107,0.707107,-0.707107,0.707107,1797.43,-422.882)">
                            <path d="M1418.45,1944.66L1388.89,1944.66C1386.85,1944.66 1385.19,1946.32 1385.19,1948.36L1385.19,1977.92" style="fill:none;stroke:white;stroke-width:0.42px;"/>
                        </g>
                        <g transform="matrix(1,0,0,1,0,-6.09523)">
                            <circle cx="1401.82" cy="1942.86" r="3.551" style="fill:none;stroke:white;stroke-width:0.42px;"/>
                        </g>
                        <g transform="matrix(1.13301,0,0,1.13301,215.216,375.735)">
                            <rect x="975.632" y="1394.04" width="143.343" height="143.343" style="fill:none;stroke:white;stroke-width:1.23px;"/>
                        </g>
                        <g transform="matrix(1.04796,0,0,1.04796,304.283,500.385)">
                            <rect x="975.632" y="1394.04" width="143.343" height="143.343" style="fill:none;stroke:white;stroke-width:0.4px;"/>
                        </g>
                        <g transform="matrix(0.819394,0,0,0.819394,543.666,835.404)">
                            <rect x="975.632" y="1394.04" width="143.343" height="143.343" style="fill:none;stroke:white;stroke-width:0.51px;"/>
                        </g>
                        <g transform="matrix(0.990202,0,0,1.05627,362.302,488.217)">
                            <path d="M1028.03,1449.21L1028.03,1467.71L1031.88,1467.71L1031.88,1475.26L1028.03,1475.26L1028.03,1482.21L1019.35,1482.21L1019.35,1475.26L1005.88,1475.26L1005.88,1468.41L1017.93,1449.21L1028.03,1449.21ZM1019.35,1467.71L1019.35,1459.99L1019.3,1459.99L1014.53,1467.71L1019.35,1467.71Z" style="fill:white;fill-rule:nonzero;"/>
                            <path d="M1036.23,1465.74C1036.23,1462.9 1036.6,1460.42 1037.33,1458.28C1038.06,1456.13 1039.08,1454.35 1040.37,1452.91C1041.66,1451.48 1043.13,1450.4 1044.78,1449.69C1046.43,1448.97 1048.17,1448.61 1050,1448.61C1051.87,1448.61 1053.63,1448.97 1055.28,1449.69C1056.93,1450.4 1058.39,1451.48 1059.67,1452.91C1060.94,1454.35 1061.95,1456.13 1062.68,1458.28C1063.41,1460.42 1063.78,1462.9 1063.78,1465.74C1063.78,1468.82 1063.41,1471.45 1062.68,1473.61C1061.95,1475.78 1060.94,1477.54 1059.67,1478.89C1058.39,1480.24 1056.93,1481.23 1055.28,1481.86C1053.63,1482.5 1051.87,1482.81 1050,1482.81C1048.17,1482.81 1046.43,1482.5 1044.78,1481.86C1043.13,1481.23 1041.66,1480.24 1040.37,1478.89C1039.08,1477.54 1038.06,1475.78 1037.33,1473.61C1036.6,1471.45 1036.23,1468.82 1036.23,1465.74ZM1044.93,1465.74C1044.93,1467.9 1045.12,1469.68 1045.52,1471.08C1045.91,1472.47 1046.48,1473.5 1047.23,1474.18C1047.98,1474.85 1048.9,1475.19 1050,1475.19C1051.12,1475.19 1052.05,1474.85 1052.8,1474.18C1053.55,1473.5 1054.12,1472.46 1054.49,1471.06C1054.87,1469.66 1055.05,1467.89 1055.05,1465.74C1055.05,1463.76 1054.87,1462.06 1054.49,1460.65C1054.12,1459.24 1053.55,1458.15 1052.8,1457.39C1052.05,1456.62 1051.12,1456.24 1050,1456.24C1048.9,1456.24 1047.98,1456.62 1047.23,1457.39C1046.48,1458.15 1045.91,1459.25 1045.52,1460.66C1045.12,1462.08 1044.93,1463.77 1044.93,1465.74Z" style="fill:white;fill-rule:nonzero;"/>
                            <path d="M1089.88,1449.21L1089.88,1467.71L1093.73,1467.71L1093.73,1475.26L1089.88,1475.26L1089.88,1482.21L1081.2,1482.21L1081.2,1475.26L1067.73,1475.26L1067.73,1468.41L1079.78,1449.21L1089.88,1449.21ZM1081.2,1467.71L1081.2,1459.99L1081.15,1459.99L1076.38,1467.71L1081.2,1467.71Z" style="fill:white;fill-rule:nonzero;"/>
                        </g>
                        <path d="M1460.55,1977.67L1476.93,1961.29" style="fill:none;stroke:white;stroke-width:0.42px;"/>
                        <path d="M1343.09,1977.67L1326.71,1961.29" style="fill:none;stroke:white;stroke-width:0.42px;"/>
                        <path d="M1343.09,2095.13L1326.71,2111.51" style="fill:none;stroke:white;stroke-width:0.42px;"/>
                        <path d="M1460.55,2095.13L1476.93,2111.51" style="fill:none;stroke:white;stroke-width:0.42px;"/>
                        <g transform="matrix(-1.11735,-1.36836e-16,1.22465e-16,-1,2968.3,4207.23)">
                            <path d="M1338.4,2099.82L1465.51,2099.82" style="fill:none;stroke:white;stroke-width:0.39px;"/>
                        </g>
                        <g transform="matrix(-1.05291,-1.28944e-16,1.15952e-16,-0.946817,2877.96,4091.46)">
                            <path d="M1338.4,2099.82L1465.51,2099.82" style="fill:none;stroke:white;stroke-width:0.42px;"/>
                        </g>
                        <g transform="matrix(-0.98847,-1.21053e-16,1.09439e-16,-0.893633,2787.61,3975.69)">
                            <path d="M1338.4,2099.82L1465.51,2099.82" style="fill:none;stroke:white;stroke-width:0.44px;"/>
                        </g>
                        <g transform="matrix(-2.05254e-16,1.11735,-1,-1.83697e-16,3572.65,469.923)">
                            <path d="M1338.4,2099.82L1465.51,2099.82" style="fill:none;stroke:white;stroke-width:0.39px;"/>
                        </g>
                        <g transform="matrix(-1.93416e-16,1.05291,-0.946817,-1.73927e-16,3456.88,560.265)">
                            <path d="M1338.4,2099.82L1465.51,2099.82" style="fill:none;stroke:white;stroke-width:0.42px;"/>
                        </g>
                        <g transform="matrix(-1.81579e-16,0.98847,-0.893633,-1.64158e-16,3341.11,650.607)">
                            <path d="M1338.4,2099.82L1465.51,2099.82" style="fill:none;stroke:white;stroke-width:0.44px;"/>
                        </g>
                    </g>
                </g>
            </g>
        </g>
    </g>
</svg>
