<?xml version="1.0" encoding="UTF-8" standalone="no"?>
<!DOCTYPE svg PUBLIC "-//W3C//DTD SVG 1.1//EN" "http://www.w3.org/Graphics/SVG/1.1/DTD/svg11.dtd">
<svg width="100%" height="100%" viewBox="0 0 400 128" version="1.1" xmlns="http://www.w3.org/2000/svg" xmlns:xlink="http://www.w3.org/1999/xlink" xml:space="preserve" xmlns:serif="http://www.serif.com/" style="fill-rule:evenodd;clip-rule:evenodd;stroke-linejoin:round;stroke-miterlimit:2;">
    <g transform="matrix(1,0,0,1,0.0487484,0)">
        <g transform="matrix(0.106667,0,0,0.106667,-0.0487484,-972.559)">
            <path d="M1200,9117.74L-0,9117.74L-0,10317.7C-0,10317.7 1200,10317.7 1200,10317.7L1200,9117.74ZM2885.46,10149.7C2857.08,10149.7 2832.76,10143.4 2812.49,10130.7C2792.22,10118.1 2776.68,10100.8 2765.87,10079C2755.06,10057.3 2749.65,10032.7 2749.65,10005.3C2749.65,9977.61 2755.27,9952.87 2766.5,9931.08C2777.74,9909.29 2793.57,9892.14 2814.01,9879.64C2834.45,9867.14 2858.6,9860.89 2886.47,9860.89C2918.74,9860.89 2945.81,9869.04 2967.68,9885.34C2989.55,9901.64 3003.53,9923.9 3009.61,9952.11L2940.7,9970.35C2936.64,9956.16 2929.59,9945.1 2919.54,9937.16C2909.49,9929.22 2898.13,9925.25 2885.46,9925.25C2870.93,9925.25 2859.03,9928.76 2849.74,9935.76C2840.45,9942.77 2833.61,9952.32 2829.21,9964.4C2824.82,9976.47 2822.62,9990.11 2822.62,10005.3C2822.62,10029.1 2827.9,10048.4 2838.46,10063.2C2849.02,10078 2864.68,10085.4 2885.46,10085.4C2901,10085.4 2912.83,10081.8 2920.93,10074.7C2929.04,10067.6 2935.12,10057.5 2939.18,10044.3L3009.61,10059C3001.84,10088.1 2987.15,10110.5 2965.53,10126.2C2943.91,10141.9 2917.22,10149.7 2885.46,10149.7ZM1671.81,10149.7C1643.43,10149.7 1619.11,10143.4 1598.84,10130.7C1578.57,10118.1 1563.03,10100.8 1552.22,10079C1541.4,10057.3 1536,10032.7 1536,10005.3C1536,9977.61 1541.62,9952.87 1552.85,9931.08C1564.08,9909.29 1579.92,9892.14 1600.36,9879.64C1620.8,9867.14 1644.95,9860.89 1672.82,9860.89C1705.08,9860.89 1732.15,9869.04 1754.03,9885.34C1775.9,9901.64 1789.88,9923.9 1795.96,9952.11L1727.04,9970.35C1722.99,9956.16 1715.94,9945.1 1705.89,9937.16C1695.84,9929.22 1684.48,9925.25 1671.81,9925.25C1657.28,9925.25 1645.37,9928.76 1636.08,9935.76C1626.79,9942.77 1619.95,9952.32 1615.56,9964.4C1611.17,9976.47 1608.97,9990.11 1608.97,10005.3C1608.97,10029.1 1614.25,10048.4 1624.81,10063.2C1635.36,10078 1651.03,10085.4 1671.81,10085.4C1687.35,10085.4 1699.17,10081.8 1707.28,10074.7C1715.39,10067.6 1721.47,10057.5 1725.52,10044.3L1795.96,10059C1788.19,10088.1 1773.49,10110.5 1751.87,10126.2C1730.25,10141.9 1703.56,10149.7 1671.81,10149.7ZM3393.22,10149.7C3365.69,10149.7 3341.53,10143.6 3320.76,10131.2C3299.98,10118.9 3283.81,10101.9 3272.24,10080.2C3260.66,10058.5 3254.88,10033.5 3254.88,10005.3C3254.88,9976.77 3260.79,9951.64 3272.62,9929.94C3284.44,9908.23 3300.74,9891.3 3321.52,9879.14C3342.29,9866.97 3366.19,9860.89 3393.22,9860.89C3420.75,9860.89 3444.95,9867.06 3465.81,9879.39C3486.67,9891.72 3502.93,9908.74 3514.59,9930.44C3526.24,9952.15 3532.07,9977.11 3532.07,10005.3C3532.07,10033.7 3526.2,10058.7 3514.46,10080.4C3502.72,10102.1 3486.42,10119.1 3465.56,10131.4C3444.7,10143.6 3420.58,10149.7 3393.22,10149.7ZM1962.17,10149.7C1934.64,10149.7 1910.48,10143.6 1889.71,10131.2C1868.93,10118.9 1852.76,10101.9 1841.19,10080.2C1829.62,10058.5 1823.83,10033.5 1823.83,10005.3C1823.83,9976.77 1829.74,9951.64 1841.57,9929.94C1853.39,9908.23 1869.69,9891.3 1890.47,9879.14C1911.25,9866.97 1935.15,9860.89 1962.17,9860.89C1989.71,9860.89 2013.9,9867.06 2034.76,9879.39C2055.62,9891.72 2071.88,9908.74 2083.54,9930.44C2095.19,9952.15 2101.02,9977.11 2101.02,10005.3C2101.02,10033.7 2095.15,10058.7 2083.41,10080.4C2071.67,10102.1 2055.37,10119.1 2034.51,10131.4C2013.65,10143.6 1989.54,10149.7 1962.17,10149.7ZM2515.72,10024.6C2517.89,10041 2523.02,10054.3 2531.12,10064.5C2542.18,10078.4 2558.44,10085.4 2579.89,10085.4C2593.41,10085.4 2604.98,10082.4 2614.61,10076.5C2624.24,10070.6 2631.58,10062.1 2636.65,10050.9L2705.57,10070.7C2695.26,10095.7 2679.01,10115.1 2656.79,10129C2634.58,10142.8 2610.3,10149.7 2583.95,10149.7C2555.91,10149.7 2531.2,10143.7 2509.84,10131.6C2488.47,10119.5 2471.75,10102.9 2459.67,10081.7C2447.59,10060.5 2441.55,10036.2 2441.55,10008.9C2441.55,9978.96 2447.47,9952.95 2459.29,9930.82C2471.11,9908.7 2487.41,9891.51 2508.19,9879.26C2528.97,9867.02 2552.87,9860.89 2579.89,9860.89C2608.61,9860.89 2633.02,9867.65 2653.12,9881.16C2673.22,9894.68 2688.08,9913.68 2697.71,9938.17C2707.34,9962.66 2710.72,9991.46 2707.85,10024.6L2515.72,10024.6ZM600,10149.7L600,9837.74C417.461,9837.74 266.653,9973.59 243.172,10149.7L600,10149.7ZM1032,9717.74L746.969,9717.74C785.87,9679.61 810,9626.49 810,9567.74C810,9451.76 715.98,9357.74 600,9357.74L600,9837.74C782.539,9837.74 933.347,9973.59 956.828,10149.7L1032,10149.7L1032,9717.74ZM3145.42,9868.49L3224.47,9868.49L3224.47,9921.7L3145.42,9921.7L3145.42,10022C3145.42,10032.7 3145.55,10042.3 3145.8,10050.8C3146.06,10059.3 3147.79,10066.1 3151,10071.2C3157.08,10080.8 3166.79,10086.1 3180.13,10086.9C3193.48,10087.7 3208.26,10087.1 3224.47,10084.9L3224.47,10142.1C3205.56,10145.7 3187.02,10147.2 3168.86,10146.8C3150.7,10146.4 3134.48,10143.2 3120.21,10137.2C3105.94,10131.2 3095.09,10121.5 3087.65,10108.2C3080.9,10095.7 3077.35,10083 3077.01,10070.1C3076.67,10057.1 3076.5,10042.5 3076.5,10026.1L3076.5,9921.7L3029.88,9921.7L3029.88,9868.49L3076.5,9868.49L3076.5,9792.48L3145.42,9792.48L3145.42,9868.49ZM2161.83,10142.1L2161.83,9769.68L2230.75,9769.68L2230.75,10142.1L2161.83,10142.1ZM2311.83,10142.1L2311.83,9769.68L2380.74,9769.68L2380.74,10142.1L2311.83,10142.1ZM3587.81,10142.1L3587.81,9868.49L3648.62,9868.49L3648.62,9912.53C3648.62,9912.53 3650.31,9908.7 3656.22,9900.93C3662.13,9893.16 3669.4,9886.74 3678.01,9881.67C3684.6,9877.62 3691.78,9874.45 3699.55,9872.17C3707.32,9869.89 3715.34,9868.45 3723.62,9867.86C3731.89,9867.27 3740.17,9867.48 3748.45,9868.49L3748.45,9932.85C3740.85,9930.49 3732.02,9929.68 3721.97,9930.44C3711.92,9931.2 3702.84,9933.53 3694.73,9937.41C3686.62,9941.13 3679.78,9946.07 3674.21,9952.23C3668.64,9958.4 3664.41,9965.66 3661.54,9974.02C3658.67,9982.39 3657.23,9991.8 3657.23,10002.3L3657.23,10142.1L3587.81,10142.1ZM1962.17,10085.4C1984.3,10085.4 2000.81,10077.9 2011.71,10063C2022.6,10048 2028.05,10028.8 2028.05,10005.3C2028.05,9980.99 2022.52,9961.57 2011.45,9947.04C2000.39,9932.51 1983.96,9925.25 1962.17,9925.25C1947.14,9925.25 1934.81,9928.63 1925.18,9935.38C1915.55,9942.14 1908.41,9951.52 1903.77,9963.51C1899.12,9975.5 1896.8,9989.44 1896.8,10005.3C1896.8,10029.8 1902.33,10049.3 1913.4,10063.7C1924.46,10078.2 1940.72,10085.4 1962.17,10085.4ZM3393.22,10085.4C3415.35,10085.4 3431.86,10077.9 3442.75,10063C3453.65,10048 3459.1,10028.8 3459.1,10005.3C3459.1,9980.99 3453.57,9961.57 3442.5,9947.04C3431.44,9932.51 3415.01,9925.25 3393.22,9925.25C3378.19,9925.25 3365.86,9928.63 3356.23,9935.38C3346.6,9942.14 3339.46,9951.52 3334.82,9963.51C3330.17,9975.5 3327.85,9989.44 3327.85,10005.3C3327.85,10029.8 3333.38,10049.3 3344.45,10063.7C3355.51,10078.2 3371.77,10085.4 3393.22,10085.4ZM2638.14,9973.39L2517.54,9973.39C2520.24,9960.72 2524.77,9950.29 2531.12,9942.1C2542.18,9927.83 2559.46,9920.69 2582.93,9920.69C2603.04,9920.69 2617.52,9926.81 2626.39,9939.06C2632.22,9947.12 2636.14,9958.56 2638.14,9973.39ZM168,9285.74L168,9717.74L453.031,9717.74C414.13,9679.61 390,9626.49 390,9567.74C390,9451.76 484.02,9357.74 600,9357.74L600,9285.74L168,9285.74ZM1720.45,9601.8C1709.58,9614.61 1698.05,9624.25 1685.87,9630.7C1670.41,9638.9 1650.86,9642.99 1627.21,9642.99C1607.62,9642.99 1591.02,9639.23 1577.43,9631.72C1563.83,9624.2 1553.53,9614.15 1546.52,9601.57C1539.51,9588.98 1536,9575.09 1536,9559.89C1536,9547.22 1537.94,9535.65 1541.83,9525.17C1545.71,9514.7 1552.01,9505.45 1560.7,9497.43C1569.4,9489.41 1581.1,9482.69 1595.8,9477.29C1605.93,9473.57 1618.01,9470.28 1632.03,9467.41C1646.05,9464.53 1661.93,9461.79 1679.66,9459.17C1697.4,9456.55 1691.54,9457.43 1712.82,9454.22C1712.82,9454.22 1709.48,9435.99 1701.71,9428.39C1693.93,9420.78 1680.93,9416.98 1662.69,9416.98C1652.55,9416.98 1641.99,9419.43 1631.02,9424.33C1620.04,9429.23 1612.35,9437.93 1607.96,9450.43L1545.63,9430.67C1552.55,9408.03 1565.56,9389.62 1584.65,9375.43C1603.74,9361.24 1629.75,9354.15 1662.69,9354.15C1686.84,9354.15 1708.29,9357.86 1727.04,9365.3C1745.79,9372.73 1759.98,9385.57 1769.61,9403.81C1775.02,9413.94 1778.22,9424.08 1779.24,9434.21C1780.25,9444.35 1780.76,9455.67 1780.76,9468.17L1780.76,9635.39L1720.45,9635.39L1720.45,9601.8L1720.45,9601.8C1723.37,9598.36 1720.45,9601.8 1720.45,9601.8L1720.45,9601.8ZM2140.57,9361.75L2219.63,9361.75L2219.63,9414.96L2140.57,9414.96L2140.57,9515.29C2140.57,9525.93 2140.7,9535.52 2140.95,9544.05C2141.21,9552.58 2142.94,9559.38 2146.15,9564.45C2152.23,9574.08 2161.94,9579.31 2175.29,9580.16C2188.63,9581 2203.41,9580.33 2219.63,9578.13L2219.63,9635.39C2200.71,9638.94 2182.17,9640.5 2164.01,9640.08C2145.85,9639.66 2129.64,9636.45 2115.37,9630.45C2101.09,9624.45 2090.24,9614.78 2082.81,9601.44C2076.05,9588.94 2072.5,9576.23 2072.16,9563.31C2071.83,9550.39 2071.66,9535.73 2071.66,9519.35L2071.66,9414.96L2025.04,9414.96L2025.04,9361.75L2071.66,9361.75L2071.66,9285.74L2140.57,9285.74L2140.57,9361.75ZM1846.63,9635.39L1846.63,9361.75L1907.44,9361.75L1907.44,9405.78C1907.44,9405.78 1909.13,9401.95 1915.05,9394.18C1920.96,9386.41 1928.22,9379.99 1936.84,9374.93C1943.42,9370.87 1950.6,9367.7 1958.37,9365.42C1966.14,9363.14 1974.16,9361.71 1982.44,9361.12C1990.72,9360.52 1999,9360.74 2007.27,9361.75L2007.27,9426.11C1999.67,9423.74 1990.85,9422.94 1980.8,9423.7C1970.75,9424.46 1961.67,9426.78 1953.56,9430.67C1945.45,9434.38 1938.61,9439.32 1933.04,9445.49C1927.46,9451.65 1923.24,9458.92 1920.37,9467.28C1917.49,9475.64 1916.06,9485.06 1916.06,9495.53L1916.06,9635.39L1846.63,9635.39ZM1641.91,9588.77C1654.58,9588.77 1665.26,9586.53 1673.96,9582.06C1682.66,9577.58 1689.59,9572.47 1694.74,9566.73C1699.89,9560.98 1703.39,9556.17 1705.25,9552.28C1708.8,9544.85 1710.87,9536.2 1711.46,9526.32C1712.05,9516.43 1712.04,9516.7 1712.04,9510.11C1712.04,9510.11 1695.62,9512.89 1682.96,9515.17C1670.29,9517.45 1660.07,9519.52 1652.3,9521.37C1644.53,9523.23 1637.69,9525.26 1631.78,9527.45C1625.02,9530.16 1619.57,9533.07 1615.43,9536.2C1611.29,9539.32 1608.25,9542.74 1606.31,9546.46C1604.37,9550.17 1603.4,9554.31 1603.4,9558.87C1603.4,9565.12 1604.96,9570.49 1608.08,9574.96C1611.21,9579.44 1615.64,9582.86 1621.39,9585.22C1627.13,9587.59 1633.97,9588.77 1641.91,9588.77Z" style="fill:white;"/>
        </g>
    </g>
</svg>
