<?xml version="1.0" encoding="UTF-8" standalone="no"?>
<!DOCTYPE svg PUBLIC "-//W3C//DTD SVG 1.1//EN" "http://www.w3.org/Graphics/SVG/1.1/DTD/svg11.dtd">
<svg width="100%" height="100%" viewBox="0 0 128 128" version="1.1" xmlns="http://www.w3.org/2000/svg" xmlns:xlink="http://www.w3.org/1999/xlink" xml:space="preserve" xmlns:serif="http://www.serif.com/" style="fill-rule:evenodd;clip-rule:evenodd;stroke-linejoin:round;stroke-miterlimit:2;">
    <g transform="matrix(0.283005,0,0,0.283005,-2301.71,-2547.14)">
        <path d="M8168.1,9006.32C8164.26,9002.48 8159.04,9000.32 8153.61,9000.32C8148.17,9000.32 8142.95,9002.48 8139.11,9006.32C8139.11,9006.33 8139.11,9006.33 8139.11,9006.33C8135.26,9010.17 8133.11,9015.39 8133.11,9020.82C8133.11,9026.26 8135.26,9031.47 8139.11,9035.32C8205.9,9102.11 8483.61,9379.81 8550.4,9446.6C8554.24,9450.45 8559.46,9452.61 8564.89,9452.61C8570.33,9452.61 8575.54,9450.45 8579.39,9446.6C8579.39,9446.6 8579.39,9446.6 8579.39,9446.6C8583.23,9442.76 8585.39,9437.54 8585.39,9432.11C8585.39,9426.67 8583.23,9421.46 8579.39,9417.61C8512.6,9350.82 8234.89,9073.12 8168.1,9006.32ZM8190.87,9132.17L8231.24,9172.54L8231.24,9193.44L8241.69,9182.99L8270.24,9211.54L8231.24,9250.54L8231.24,9352.9L8293.81,9352.9L8352.71,9294.01L8381.25,9322.55L8350.91,9352.9L8411.59,9352.9L8451.96,9393.26L8211.05,9393.26C8199.98,9393.26 8190.87,9384.15 8190.87,9373.08L8190.87,9132.17ZM8234.12,9029.95L8534,9029.95C8545.07,9029.95 8554.18,9039.06 8554.18,9050.13L8554.18,9350.01L8425.44,9221.26L8453.26,9193.44L8513.82,9253.99L8513.82,9070.32L8274.49,9070.32L8234.12,9029.95ZM8443.17,9171.24C8426.56,9171.24 8412.89,9157.57 8412.89,9140.96C8412.89,9124.35 8426.56,9110.68 8443.17,9110.68C8459.78,9110.68 8473.45,9124.35 8473.45,9140.96C8473.45,9157.57 8459.78,9171.24 8443.17,9171.24Z" style="fill:white;fill-rule:nonzero;"/>
    </g>
    <g id="image-unavaliable-line.svg" transform="matrix(1,0,0,1,64,64)">
        <g transform="matrix(1,0,0,1,-64,-64)">
            <clipPath id="_clip1">
                <rect x="0" y="0" width="128" height="128"/>
            </clipPath>
            <g clip-path="url(#_clip1)">
                <g transform="matrix(0.283005,0,0,0.283005,-2301.71,-2547.14)">
                    <path d="M8168.1,9006.32C8164.26,9002.48 8159.04,9000.32 8153.61,9000.32C8148.17,9000.32 8142.95,9002.48 8139.11,9006.32L8139.11,9006.33C8135.26,9010.17 8133.11,9015.39 8133.11,9020.82C8133.11,9026.26 8135.26,9031.47 8139.11,9035.32C8205.9,9102.11 8483.61,9379.81 8550.4,9446.6C8554.24,9450.45 8559.46,9452.61 8564.89,9452.61C8570.33,9452.61 8575.54,9450.45 8579.39,9446.6C8583.23,9442.76 8585.39,9437.54 8585.39,9432.11C8585.39,9426.67 8583.23,9421.46 8579.39,9417.61C8512.6,9350.82 8234.89,9073.12 8168.1,9006.32ZM8190.87,9132.17L8231.24,9172.54L8231.24,9193.44L8241.69,9182.99L8270.24,9211.54L8231.24,9250.54L8231.24,9352.9L8293.81,9352.9L8352.71,9294.01L8381.25,9322.55L8350.91,9352.9L8411.59,9352.9L8451.96,9393.26L8211.05,9393.26C8199.98,9393.26 8190.87,9384.15 8190.87,9373.08L8190.87,9132.17ZM8234.12,9029.95L8534,9029.95C8545.07,9029.95 8554.18,9039.06 8554.18,9050.13L8554.18,9350.01L8425.44,9221.26L8453.26,9193.44L8513.82,9253.99L8513.82,9070.32L8274.49,9070.32L8234.12,9029.95ZM8443.17,9171.24C8426.56,9171.24 8412.89,9157.57 8412.89,9140.96C8412.89,9124.35 8426.56,9110.68 8443.17,9110.68C8459.78,9110.68 8473.45,9124.35 8473.45,9140.96C8473.45,9157.57 8459.78,9171.24 8443.17,9171.24Z" style="fill:white;fill-rule:nonzero;"/>
                </g>
            </g>
        </g>
    </g>
</svg>
